<svg xmlns="http://www.w3.org/2000/svg" id="analytics" viewBox="0 0 64.37 54.59">
  <g id="ICONS">
    <path d="M56.94 25.27c0 13.68-11.09 24.77-24.77 24.77-6.56 0-12.53-2.55-16.95-6.73l4.35-4.13c3.34 3.02 7.75 4.86 12.59 4.86 10.35 0 18.78-8.42 18.78-18.77z" style="fill:#fe4e3e"></path>
    <path d="M56.94 25.27c0 13.68-11.09 24.77-24.77 24.77-6.56 0-12.53-2.55-16.95-6.73l4.35-4.13c3.34 3.02 7.75 4.86 12.59 4.86 10.35 0 18.78-8.42 18.78-18.77z" style="fill:none;stroke-linecap:round;stroke-linejoin:round;stroke:#000"></path>
    <path d="M56.94 25.27h-6c0-10.1-8.03-18.37-18.04-18.75v-6C46.24.9 56.94 11.84 56.94 25.27" style="fill:#5097ff"></path>
    <path d="M56.94 25.27h-6c0-10.1-8.03-18.37-18.04-18.75v-6C46.24.9 56.94 11.84 56.94 25.27" style="fill:none;stroke-linecap:round;stroke-linejoin:round;stroke:#000"></path>
    <path d="M32.9.52v6c-.25-.02-.49-.02-.74-.02-10.34 0-18.77 8.42-18.77 18.77 0 5.51 2.39 10.47 6.18 13.91l-4.35 4.13A24.6 24.6 0 0 1 7.4 25.27C7.4 11.59 18.49.5 32.17.5c.25 0 .49 0 .73.02" style="fill:#ffb807"></path>
    <path d="M32.9.52v6c-.25-.02-.49-.02-.74-.02-10.34 0-18.77 8.42-18.77 18.77 0 5.51 2.39 10.47 6.18 13.91l-4.35 4.13A24.6 24.6 0 0 1 7.4 25.27C7.4 11.59 18.49.5 32.17.5c.25 0 .49 0 .73.02" style="fill:none;stroke-linecap:round;stroke-linejoin:round;stroke:#000"></path>
    <path d="m15.22 43.31-.01.01" style="stroke-linecap:round;stroke-linejoin:round;stroke:#231f20;fill:#fff"></path>
    <path d="M49.14 11.42 55.44.93h8.43" style="fill:none;stroke-linecap:round;stroke-linejoin:round;stroke:#231f20"></path>
    <path d="M57.41 3.33h6.46M59.83 5.88h4.04" style="stroke-linecap:round;stroke-linejoin:round;stroke:#231f20;fill:#fff"></path>
    <path d="m42.22 43.6 6.3 10.49h8.42" style="fill:none;stroke-linecap:round;stroke-linejoin:round;stroke:#231f20"></path>
    <path d="M50.48 51.68h6.46M52.91 49.13h4.03" style="stroke-linecap:round;stroke-linejoin:round;stroke:#231f20;fill:#fff"></path>
    <path d="m15.54 38.07-6.3 10.48H.82" style="fill:none;stroke-linecap:round;stroke-linejoin:round;stroke:#231f20"></path>
    <path d="M7.28 46.15H.82M4.85 43.6H.82" style="stroke-linecap:round;stroke-linejoin:round;stroke:#231f20;fill:#fff"></path>
    <path d="M15.22 14.04 8.93 3.55H.5" style="fill:none;stroke-linecap:round;stroke-linejoin:round;stroke:#231f20"></path>
    <path d="M6.96 5.95H.5M4.54 8.51H.5" style="stroke-linecap:round;stroke-linejoin:round;stroke:#231f20;fill:#fff"></path>
    <path d="M46.84 25.27c0 1.11-.12 2.19-.36 3.23-1.47 6.54-7.32 11.43-14.3 11.43-1.52 0-2.98-.23-4.37-.66-5.28-1.64-9.28-6.2-10.12-11.77-.12-.73-.17-1.47-.17-2.23 0-5.62 3.16-10.49 7.79-12.96 2.05-1.09 4.39-1.71 6.87-1.71a14.666 14.666 0 0 1 14.55 12.87c.08.58.11 1.18.11 1.79Z" style="fill:#64daf9"></path>
    <path d="M46.84 25.27c0 1.11-.12 2.19-.36 3.23-1.47 6.54-7.32 11.43-14.3 11.43-1.52 0-2.98-.23-4.37-.66-5.28-1.64-9.28-6.2-10.12-11.77-.12-.73-.17-1.47-.17-2.23 0-5.62 3.16-10.49 7.79-12.96 2.05-1.09 4.39-1.71 6.87-1.71a14.666 14.666 0 0 1 14.55 12.87c.08.58.11 1.18.11 1.79Z" style="fill:none;stroke-linecap:round;stroke-linejoin:round;stroke:#000"></path>
    <path d="M33.13 20.56c-.78.08-1.55.15-2.32.23-.83.08-1.73.14-2.43-.31-.44-.29-.75-.76-1.18-1.06-.44-.3-1.13-.37-1.42.08-.43.68.54 1.68.06 2.33-.54.7-1.92-.19-2.48.5-.25.32-.15.8.07 1.15s.53.63.71 1c.34.72 0 1.67-.7 2.02-.71.36-1.67.04-2.04-.65.08.69-.5 1.33-1.16 1.57s-1.39.19-2.08.12c-.14-.01-.3-.03-.44-.04-.12-.73-.17-1.47-.17-2.23 0-5.62 3.16-10.49 7.79-12.96.1.19.22.36.41.54.59.59 1.44.92 2.27.86.6-.05 1.17-.28 1.76-.3.6-.02 1.28.26 1.42.84.19.76-.63 1.42-.67 2.19-.03.59.4 1.11.87 1.46.48.35 1.03.61 1.44 1.04s.63 1.11.32 1.61Z" style="fill:#05bb70"></path>
    <path d="M33.13 20.56c-.78.08-1.55.15-2.32.23-.83.08-1.73.14-2.43-.31-.44-.29-.75-.76-1.18-1.06-.44-.3-1.13-.37-1.42.08-.43.68.54 1.68.06 2.33-.54.7-1.92-.19-2.48.5-.25.32-.15.8.07 1.15s.53.63.71 1c.34.72 0 1.67-.7 2.02-.71.36-1.67.04-2.04-.65.08.69-.5 1.33-1.16 1.57s-1.39.19-2.08.12c-.14-.01-.3-.03-.44-.04-.12-.73-.17-1.47-.17-2.23 0-5.62 3.16-10.49 7.79-12.96.1.19.22.36.41.54.59.59 1.44.92 2.27.86.6-.05 1.17-.28 1.76-.3.6-.02 1.28.26 1.42.84.19.76-.63 1.42-.67 2.19-.03.59.4 1.11.87 1.46.48.35 1.03.61 1.44 1.04s.63 1.11.32 1.61Z" style="fill:none;stroke-linecap:round;stroke-linejoin:round;stroke:#000"></path>
    <path d="M46.73 23.48c-.65-.31-1.29-.72-1.99-.61-.58.09-1.17.53-1.71.3-.63-.28-.61-1.16-.87-1.79-.34-.8-1.21-1.23-2.05-1.45-.84-.23-1.73-.31-2.49-.74-.76-.42-1.35-1.33-1.05-2.15.2-.56.75-.91 1.16-1.35.4-.45.63-1.21.17-1.6-.34-.28-.91-.23-1.16-.59-.18-.25-.11-.61-.03-.91.08-.33.14-.75.22-1.19 5.23 1.78 9.12 6.44 9.81 12.08Z" style="fill:#05bb70"></path>
    <path d="M46.73 23.48c-.65-.31-1.29-.72-1.99-.61-.58.09-1.17.53-1.71.3-.63-.28-.61-1.16-.87-1.79-.34-.8-1.21-1.23-2.05-1.45-.84-.23-1.73-.31-2.49-.74-.76-.42-1.35-1.33-1.05-2.15.2-.56.75-.91 1.16-1.35.4-.45.63-1.21.17-1.6-.34-.28-.91-.23-1.16-.59-.18-.25-.11-.61-.03-.91.08-.33.14-.75.22-1.19 5.23 1.78 9.12 6.44 9.81 12.08Z" style="fill:none;stroke-linecap:round;stroke-linejoin:round;stroke:#000"></path>
    <path d="M46.49 28.5c-1.47 6.54-7.32 11.43-14.3 11.43-1.52 0-2.98-.23-4.37-.66 0-.1 0-.21.03-.31.17-.68.85-1.07 1.46-1.42.41-.22.84-.51 1.1-.88.2-.29.61-.34.91-.15s.6.33.93.4c.61.14 1.31-.01 1.66-.53.08-.12.13-.25.19-.38.15-.34.3-.69.44-1.04.11-.27.23-.54.23-.83 0-.55-.36-1.03-.5-1.57-.25-1 .41-2.04 1.29-2.58.59-.36 1.26-.54 1.95-.67.44-.08.64-.58.4-.95-.05-.07-.09-.14-.14-.21a.62.62 0 0 1 .21-.85c1.31-.8 2.97-1 4.43-.51.96.32 1.79.91 2.7 1.35.43.21.91.28 1.39.36Z" style="fill:#05bb70"></path>
    <path d="M46.49 28.5c-1.47 6.54-7.32 11.43-14.3 11.43-1.52 0-2.98-.23-4.37-.66 0-.1 0-.21.03-.31.17-.68.85-1.07 1.46-1.42.41-.22.84-.51 1.1-.88.2-.29.61-.34.91-.15s.6.33.93.4c.61.14 1.31-.01 1.66-.53.08-.12.13-.25.19-.38.15-.34.3-.69.44-1.04.11-.27.23-.54.23-.83 0-.55-.36-1.03-.5-1.57-.25-1 .41-2.04 1.29-2.58.59-.36 1.26-.54 1.95-.67.44-.08.64-.58.4-.95-.05-.07-.09-.14-.14-.21a.62.62 0 0 1 .21-.85c1.31-.8 2.97-1 4.43-.51.96.32 1.79.91 2.7 1.35.43.21.91.28 1.39.36Z" style="fill:none;stroke-linecap:round;stroke-linejoin:round;stroke:#000"></path>
    <path d="M31.78 27.84c-.06.39-.12.76-.18 1.14-.06.36-.11.72-.17 1.07-.08.54-.17 1.07-.28 1.6-.07.37-.17.76-.45 1-.39.35-.99.28-1.51.2-.06-.51-.12-1.04-.41-1.46-.34-.5-.94-.75-1.5-.97-.52-.21-1.05-.42-1.57-.63-.3-.12-.66-.32-.66-.65 0-.23.21-.43.44-.5.23-.06.47-.02.7.01.4-.43.36-.91.88-1.16.41-.19.86-.27 1.3-.22l1.35-.6c.03-.01.06-.03.08-.04.31-.14.62-.28.95-.3.34-.03.69.08.89.34.24.32.19.76.13 1.15Z" style="fill:#05bb70"></path>
    <path d="M31.78 27.84c-.06.39-.12.76-.18 1.14-.06.36-.11.72-.17 1.07-.08.54-.17 1.07-.28 1.6-.07.37-.17.76-.45 1-.39.35-.99.28-1.51.2-.06-.51-.12-1.04-.41-1.46-.34-.5-.94-.75-1.5-.97-.52-.21-1.05-.42-1.57-.63-.3-.12-.66-.32-.66-.65 0-.23.21-.43.44-.5.23-.06.47-.02.7.01.4-.43.36-.91.88-1.16.41-.19.86-.27 1.3-.22l1.35-.6c.03-.01.06-.03.08-.04.31-.14.62-.28.95-.3.34-.03.69.08.89.34.24.32.19.76.13 1.15Z" style="fill:none;stroke-linecap:round;stroke-linejoin:round;stroke:#000"></path>
  </g>
</svg>
